STARTFONT 2.1
COMMENT
COMMENT Converted from OpenType font "..\ttf\ITC Avant Garde Gothic Book Condensed.otf" by "otf2bdf.exe 3.0".
COMMENT
FONT -FreeType-AvantGarde CondBook-Medium-R-Normal--40-290-100-100-P-162-ISO10646-1
SIZE 29 100 100
FONTBOUNDINGBOX 46 47 -7 -8
STARTPROPERTIES 19
FOUNDRY "FreeType"
FAMILY_NAME "AvantGarde CondBook"
WEIGHT_NAME "Medium"
SLANT "R"
SETWIDTH_NAME "Normal"
ADD_STYLE_NAME ""
PIXEL_SIZE 40
POINT_SIZE 290
RESOLUTION_X 100
RESOLUTION_Y 100
SPACING "P"
AVERAGE_WIDTH 162
CHARSET_REGISTRY "ISO10646"
CHARSET_ENCODING "1"
FONT_ASCENT 28
FONT_DESCENT 7
COPYRIGHT "Copyright (c) 1989, 1990 Adobe Systems Incorporated.  All Rights Reserved.Avant Garde Gothic is a registered trademark of International Typeface Corporation."
_OTF_FONTFILE "..\ttf\ITC Avant Garde Gothic Book Condensed.otf"
_OTF_PSNAME "AvantGarde-CondBook"
ENDPROPERTIES
CHARS 235
STARTCHAR 0020
ENCODING 32
SWIDTH 273 0
DWIDTH 11 0
BBX 0 0 0 0
BITMAP
ENDCHAR
STARTCHAR 0021
ENCODING 33
SWIDTH 223 0
DWIDTH 9 0
BBX 3 29 3 0
BITMAP
E0
E0
E0
E0
E0
E0
E0
E0
E0
E0
E0
E0
E0
E0
E0
E0
E0
E0
E0
E0
E0
E0
00
00
00
E0
E0
E0
E0
ENDCHAR
STARTCHAR 0022
ENCODING 34
SWIDTH 322 0
DWIDTH 13 0
BBX 7 11 3 18
BITMAP
C6
C6
C6
C6
C6
C6
C6
C6
C6
C6
C6
ENDCHAR
STARTCHAR 0023
ENCODING 35
SWIDTH 546 0
DWIDTH 22 0
BBX 20 29 1 0
BITMAP
01C180
018380
018380
038380
038380
038380
038380
038300
030300
7FFFF0
7FFFF0
7FFFF0
070700
070700
070600
060600
060E00
FFFFE0
FFFFE0
FFFFE0
0E0E00
0E0C00
0E0C00
0C1C00
0C1C00
1C1C00
1C1C00
1C1C00
1C1800
ENDCHAR
STARTCHAR 0024
ENCODING 36
SWIDTH 546 0
DWIDTH 22 0
BBX 17 37 2 -4
BITMAP
00C000
00C000
00C000
07F000
1FFC00
3FFC00
781E00
700E00
E00700
E00700
E00700
E00000
F00000
700000
7C0000
3F0000
1FC000
07F000
01FC00
003E00
001F00
000700
000780
000380
000380
E00380
E00380
F00380
700700
7C0F00
3FFE00
1FFC00
07F000
00C000
00C000
00C000
00C000
ENDCHAR
STARTCHAR 0025
ENCODING 37
SWIDTH 893 0
DWIDTH 36 0
BBX 30 29 2 0
BITMAP
0F800C00
3FE01C00
70701C00
60303800
E0183800
C0183000
C0187000
C0186000
C018E000
E018E000
6031C000
7071C000
3FE18000
0F838000
000303C0
00070FF0
00071C38
000E1818
000E300C
000C300C
001C300C
001C300C
0038300C
0038300C
0070300C
00701818
00E01C38
00E00FF0
00E003C0
ENDCHAR
STARTCHAR 0026
ENCODING 38
SWIDTH 620 0
DWIDTH 25 0
BBX 23 29 1 0
BITMAP
01F000
07F800
0FFC00
0E1E00
1C0E00
1C0E00
1C0E00
1C0E00
1C1C00
1E1C00
0E7800
0FF008
07E00E
0FC01C
1FC03C
3DE038
78F070
707870
E03CE0
E01CE0
E01FC0
E00FC0
E00780
F007C0
700FC0
781EE0
3FFCF0
1FF878
07E038
ENDCHAR
STARTCHAR 0027
ENCODING 39
SWIDTH 223 0
DWIDTH 9 0
BBX 2 11 3 18
BITMAP
C0
C0
C0
C0
C0
C0
C0
C0
C0
C0
C0
ENDCHAR
STARTCHAR 0028
ENCODING 40
SWIDTH 397 0
DWIDTH 16 0
BBX 12 37 3 -7
BITMAP
0030
00F0
01E0
03C0
0780
0F00
0E00
1C00
3C00
3800
3800
7000
7000
7000
E000
E000
E000
E000
E000
E000
E000
E000
F000
7000
7000
7000
3800
3800
1C00
1E00
0E00
0700
0380
01E0
00F0
0070
0010
ENDCHAR
STARTCHAR 0029
ENCODING 41
SWIDTH 397 0
DWIDTH 16 0
BBX 12 37 1 -7
BITMAP
C000
F000
7800
3C00
1E00
0F00
0700
0380
03C0
01C0
01E0
00E0
00E0
00F0
0070
0070
0070
0070
0070
0070
0070
0070
0070
00E0
00E0
00E0
01C0
01C0
0380
0380
0700
0E00
1C00
7800
F000
E000
8000
ENDCHAR
STARTCHAR 002A
ENCODING 42
SWIDTH 446 0
DWIDTH 18 0
BBX 14 14 2 14
BITMAP
0300
0300
0300
6318
F33C
3FF0
0FC0
0780
3FF0
FB7C
6318
4308
0300
0300
ENDCHAR
STARTCHAR 002B
ENCODING 43
SWIDTH 595 0
DWIDTH 24 0
BBX 21 21 1 0
BITMAP
007000
007000
007000
007000
007000
007000
007000
007000
007000
FFFFF8
FFFFF8
FFFFF8
007000
007000
007000
007000
007000
007000
007000
007000
007000
ENDCHAR
STARTCHAR 002C
ENCODING 44
SWIDTH 273 0
DWIDTH 11 0
BBX 7 9 0 -5
BITMAP
0E
0C
1C
18
38
30
70
60
E0
ENDCHAR
STARTCHAR 002D
ENCODING 45
SWIDTH 322 0
DWIDTH 13 0
BBX 10 2 2 9
BITMAP
FFC0
FFC0
ENDCHAR
STARTCHAR 002E
ENCODING 46
SWIDTH 273 0
DWIDTH 11 0
BBX 3 4 4 0
BITMAP
E0
E0
E0
E0
ENDCHAR
STARTCHAR 002F
ENCODING 47
SWIDTH 273 0
DWIDTH 11 0
BBX 13 29 -1 0
BITMAP
0038
0070
0070
0070
00E0
00E0
00E0
01C0
01C0
01C0
0380
0380
0380
0700
0700
0700
0E00
0E00
0E00
1C00
1C00
1C00
3800
3800
3000
7000
7000
6000
E000
ENDCHAR
STARTCHAR 0030
ENCODING 48
SWIDTH 546 0
DWIDTH 22 0
BBX 19 29 1 0
BITMAP
01F800
07FC00
0FFF00
1E0F00
3C0780
380380
7001C0
7001C0
7001C0
E000E0
E000E0
E000E0
E000E0
E000E0
E000E0
E000E0
E000E0
E000E0
E000E0
E000E0
7001C0
7001C0
7001C0
380380
3C0780
1E0F00
1FFE00
07FC00
01F000
ENDCHAR
STARTCHAR 0031
ENCODING 49
SWIDTH 546 0
DWIDTH 22 0
BBX 8 29 5 0
BITMAP
FF
FF
FF
07
07
07
07
07
07
07
07
07
07
07
07
07
07
07
07
07
07
07
07
07
07
07
07
07
07
ENDCHAR
STARTCHAR 0032
ENCODING 50
SWIDTH 546 0
DWIDTH 22 0
BBX 17 29 2 0
BITMAP
03F000
1FFC00
3FFE00
7C0F00
700700
700380
E00380
E00380
E00380
000380
000380
000700
000700
000E00
001E00
003C00
007800
00F000
01E000
03C000
078000
0F0000
0E0000
1C0000
380000
700000
FFFF80
FFFF80
FFFF80
ENDCHAR
STARTCHAR 0033
ENCODING 51
SWIDTH 546 0
DWIDTH 22 0
BBX 18 29 1 0
BITMAP
03F000
0FFC00
1FFE00
3C0F00
380780
700380
700380
700380
000380
000380
000700
000F00
01FC00
01F800
01FE00
000F00
000380
000380
0001C0
0001C0
E001C0
E001C0
E001C0
F001C0
700380
7C0780
3FFF00
1FFE00
07F000
ENDCHAR
STARTCHAR 0034
ENCODING 52
SWIDTH 546 0
DWIDTH 22 0
BBX 19 29 1 0
BITMAP
001E00
003E00
003E00
007E00
007E00
00EE00
00EE00
01CE00
01CE00
038E00
070E00
070E00
0E0E00
0E0E00
1C0E00
1C0E00
380E00
380E00
700E00
700E00
FFFFE0
FFFFE0
FFFFE0
000E00
000E00
000E00
000E00
000E00
000E00
ENDCHAR
STARTCHAR 0035
ENCODING 53
SWIDTH 546 0
DWIDTH 22 0
BBX 17 29 2 0
BITMAP
3FFE00
3FFE00
3FFE00
300000
300000
300000
300000
300000
300000
73F000
77FC00
7FFE00
7C1F00
780700
700700
700380
200380
000380
000380
000380
000380
E00380
E00380
F00700
700700
780E00
3FFC00
1FF800
07E000
ENDCHAR
STARTCHAR 0036
ENCODING 54
SWIDTH 546 0
DWIDTH 22 0
BBX 18 29 2 0
BITMAP
01F800
07FE00
0FFF00
1E0F80
3C0380
3803C0
7001C0
7001C0
700000
600000
E1F000
E7FC00
EFFE00
FE0F00
F80780
F80380
F003C0
F001C0
F001C0
F001C0
F001C0
7001C0
7001C0
780380
380780
3E0F00
1FFF00
0FFC00
03F000
ENDCHAR
STARTCHAR 0037
ENCODING 55
SWIDTH 546 0
DWIDTH 22 0
BBX 17 29 2 0
BITMAP
FFFF80
FFFF80
FFFF80
000380
000700
000700
000F00
000E00
000E00
001E00
001C00
001C00
003C00
003800
003800
007800
007000
00F000
00E000
00E000
01E000
01C000
01C000
03C000
038000
038000
078000
070000
0F0000
ENDCHAR
STARTCHAR 0038
ENCODING 56
SWIDTH 546 0
DWIDTH 22 0
BBX 19 29 1 0
BITMAP
03F800
0FFE00
1FFF00
3C0780
3803C0
7001C0
7001C0
7001C0
7001C0
7803C0
380380
3E0F80
1FFE00
07FC00
1FFF00
3C0F80
7803C0
F001E0
E000E0
E000E0
E000E0
E000E0
E000E0
7001E0
7803C0
3C0780
3FFF80
0FFE00
03F800
ENDCHAR
STARTCHAR 0039
ENCODING 57
SWIDTH 546 0
DWIDTH 22 0
BBX 18 29 2 0
BITMAP
03F000
0FFC00
1FFE00
3C1F00
780700
700780
F00380
E00380
E003C0
E003C0
E003C0
E003C0
F003C0
7007C0
7807C0
3C1FC0
1FFDC0
0FF9C0
03E1C0
0001C0
000380
E00380
E00380
F00700
700F00
7C1E00
3FFC00
1FF800
07E000
ENDCHAR
STARTCHAR 003A
ENCODING 58
SWIDTH 273 0
DWIDTH 11 0
BBX 3 18 4 1
BITMAP
E0
E0
E0
E0
00
00
00
00
00
00
00
00
00
00
E0
E0
E0
E0
ENDCHAR
STARTCHAR 003B
ENCODING 59
SWIDTH 273 0
DWIDTH 11 0
BBX 7 23 0 -5
BITMAP
0E
0E
0E
0E
00
00
00
00
00
00
00
00
00
00
0E
0E
1C
1C
38
30
70
60
E0
ENDCHAR
STARTCHAR 003C
ENCODING 60
SWIDTH 595 0
DWIDTH 24 0
BBX 20 20 2 0
BITMAP
000030
0000F0
0007F0
001FC0
007F00
01F800
07E000
1F8000
FE0000
F80000
F80000
7E0000
1FC000
07F000
01FC00
003F00
000FC0
0003F0
0000F0
000030
ENDCHAR
STARTCHAR 003D
ENCODING 61
SWIDTH 595 0
DWIDTH 24 0
BBX 20 10 2 5
BITMAP
FFFFF0
FFFFF0
FFFFF0
000000
000000
000000
000000
FFFFF0
FFFFF0
FFFFF0
ENDCHAR
STARTCHAR 003E
ENCODING 62
SWIDTH 595 0
DWIDTH 24 0
BBX 20 21 2 0
BITMAP
800000
E00000
F80000
7E0000
1F8000
07F000
01FC00
007F00
000FC0
0003F0
0000F0
0003F0
000FC0
003F00
01FC00
07F000
1FC000
7F0000
F80000
E00000
800000
ENDCHAR
STARTCHAR 003F
ENCODING 63
SWIDTH 446 0
DWIDTH 18 0
BBX 15 29 1 0
BITMAP
0FC0
1FF0
3FF8
703C
F01C
E00E
E00E
E00E
E00E
000E
001C
003C
0078
01F0
03E0
07C0
0780
0700
0700
0700
0700
0700
0000
0000
0000
0700
0700
0700
0700
ENDCHAR
STARTCHAR 0040
ENCODING 64
SWIDTH 794 0
DWIDTH 32 0
BBX 28 29 2 0
BITMAP
001FC000
00FFF800
03F9FE00
07801F00
0F000780
1E0003C0
3C0F81E0
383FCCE0
70FFFCF0
70F0FC70
71E07870
E3C03870
E3803870
E3803070
E7007070
E70070E0
E70070E0
E700E1E0
7781E1C0
73C3E380
7BFFFF00
39FEFE00
3CF878C0
1E0001C0
0F000780
07C00F00
03FDFE00
00FFF800
001FC000
ENDCHAR
STARTCHAR 0041
ENCODING 65
SWIDTH 496 0
DWIDTH 20 0
BBX 20 29 0 0
BITMAP
00F000
01F000
01F800
01F800
01B800
039C00
039C00
039C00
031C00
070E00
070E00
060E00
0E0600
0E0700
0E0700
0C0700
1C0380
1FFF80
1FFF80
1FFF80
3801C0
3801C0
3001C0
7000C0
7000E0
7000E0
6000E0
E00070
E00070
ENDCHAR
STARTCHAR 0042
ENCODING 66
SWIDTH 546 0
DWIDTH 22 0
BBX 17 29 3 0
BITMAP
FFF000
FFF800
FFFE00
E01E00
E00F00
E00700
E00700
E00700
E00700
E00700
E00E00
E01E00
FFFC00
FFF000
FFFE00
E01F00
E00700
E00780
E00380
E00380
E00380
E00380
E00380
E00380
E00700
E00F00
FFFE00
FFFC00
FFF000
ENDCHAR
STARTCHAR 0043
ENCODING 67
SWIDTH 546 0
DWIDTH 22 0
BBX 20 29 1 0
BITMAP
01FC00
07FF00
0FFF80
1E07C0
3C01C0
3800E0
7000E0
7000F0
700070
600070
E00070
E00000
E00000
E00000
E00000
E00000
E00000
E00000
E00000
F00070
700070
700070
7800F0
3800E0
3C01E0
1E03C0
0FFF80
07FF00
01FC00
ENDCHAR
STARTCHAR 0044
ENCODING 68
SWIDTH 620 0
DWIDTH 25 0
BBX 20 29 3 0
BITMAP
FFF000
FFFE00
FFFF00
E00F80
E003C0
E001C0
E001E0
E000E0
E000E0
E000F0
E00070
E00070
E00070
E00070
E00070
E00070
E00070
E00070
E00070
E00070
E000E0
E000E0
E001E0
E001C0
E00380
E00780
FFFF00
FFFC00
FFF000
ENDCHAR
STARTCHAR 0045
ENCODING 69
SWIDTH 496 0
DWIDTH 20 0
BBX 14 29 3 0
BITMAP
FFFC
FFFC
FFFC
E000
E000
E000
E000
E000
E000
E000
E000
E000
FFFC
FFFC
FFFC
E000
E000
E000
E000
E000
E000
E000
E000
E000
E000
E000
FFFC
FFFC
FFFC
ENDCHAR
STARTCHAR 0046
ENCODING 70
SWIDTH 446 0
DWIDTH 18 0
BBX 13 29 3 0
BITMAP
FFF8
FFF8
FFF8
E000
E000
E000
E000
E000
E000
E000
E000
E000
FFF8
FFF8
FFF8
E000
E000
E000
E000
E000
E000
E000
E000
E000
E000
E000
E000
E000
E000
ENDCHAR
STARTCHAR 0047
ENCODING 71
SWIDTH 620 0
DWIDTH 25 0
BBX 22 29 1 0
BITMAP
00FE00
07FF80
0FFFC0
1E01E0
3C00F0
380070
700078
700038
700038
E00000
E00000
E00000
E00000
E00000
E07FFC
E07FFC
E07FFC
E0001C
E0001C
70001C
70001C
70001C
780038
380038
3C0070
1E00F0
0FFFE0
07FF80
00FE00
ENDCHAR
STARTCHAR 0048
ENCODING 72
SWIDTH 620 0
DWIDTH 25 0
BBX 18 29 3 0
BITMAP
E001C0
E001C0
E001C0
E001C0
E001C0
E001C0
E001C0
E001C0
E001C0
E001C0
E001C0
E001C0
FFFFC0
FFFFC0
FFFFC0
E001C0
E001C0
E001C0
E001C0
E001C0
E001C0
E001C0
E001C0
E001C0
E001C0
E001C0
E001C0
E001C0
E001C0
ENDCHAR
STARTCHAR 0049
ENCODING 73
SWIDTH 223 0
DWIDTH 9 0
BBX 3 29 3 0
BITMAP
E0
E0
E0
E0
E0
E0
E0
E0
E0
E0
E0
E0
E0
E0
E0
E0
E0
E0
E0
E0
E0
E0
E0
E0
E0
E0
E0
E0
E0
ENDCHAR
STARTCHAR 004A
ENCODING 74
SWIDTH 446 0
DWIDTH 18 0
BBX 15 29 0 0
BITMAP
000E
000E
000E
000E
000E
000E
000E
000E
000E
000E
000E
000E
000E
000E
000E
000E
000E
000E
000E
000E
000E
000E
E00E
E00E
F01E
781C
7FFC
3FF8
0FE0
ENDCHAR
STARTCHAR 004B
ENCODING 75
SWIDTH 546 0
DWIDTH 22 0
BBX 19 29 3 0
BITMAP
E00780
E00700
E00E00
E01E00
E01C00
E03800
E07800
E0F000
E0E000
E1C000
E3C000
E3C000
E7C000
EFE000
EEE000
FCF000
F87000
F87800
F03800
E03C00
E01C00
E01E00
E00E00
E00F00
E00700
E00780
E003C0
E003C0
E001E0
ENDCHAR
STARTCHAR 004C
ENCODING 76
SWIDTH 446 0
DWIDTH 18 0
BBX 14 29 3 0
BITMAP
E000
E000
E000
E000
E000
E000
E000
E000
E000
E000
E000
E000
E000
E000
E000
E000
E000
E000
E000
E000
E000
E000
E000
E000
E000
E000
FFFC
FFFC
FFFC
ENDCHAR
STARTCHAR 004D
ENCODING 77
SWIDTH 720 0
DWIDTH 29 0
BBX 23 29 3 0
BITMAP
F8003E
F8003E
F8003E
FC003E
FC007E
FC007E
FC007E
EE00EE
EE00EE
EE00EE
E700CE
E701CE
E701CE
E3818E
E3818E
E3838E
E1C38E
E1C30E
E1C70E
E1C70E
E0E60E
E0E60E
E0EE0E
E07E0E
E07C0E
E07C0E
E03C0E
E0380E
E0380E
ENDCHAR
STARTCHAR 004E
ENCODING 78
SWIDTH 620 0
DWIDTH 25 0
BBX 18 29 3 0
BITMAP
F001C0
F001C0
F801C0
F801C0
FC01C0
FC01C0
FE01C0
EE01C0
EF01C0
E701C0
E781C0
E381C0
E3C1C0
E1C1C0
E0E1C0
E0E1C0
E071C0
E079C0
E039C0
E03DC0
E01DC0
E01FC0
E00FC0
E00FC0
E007C0
E007C0
E003C0
E003C0
E001C0
ENDCHAR
STARTCHAR 004F
ENCODING 79
SWIDTH 620 0
DWIDTH 25 0
BBX 22 29 1 0
BITMAP
00FE00
07FF80
0FFFC0
1E01E0
3C00F0
380070
700038
700038
700038
60001C
E0001C
E0001C
E0001C
E0001C
E0001C
E0001C
E0001C
E0001C
E0001C
E0001C
700038
700038
780038
380070
3C00F0
1E01E0
0FFFC0
07FF80
00FC00
ENDCHAR
STARTCHAR 0050
ENCODING 80
SWIDTH 546 0
DWIDTH 22 0
BBX 17 29 3 0
BITMAP
FFF000
FFFC00
FFFE00
E00F00
E00700
E00380
E00380
E00380
E00380
E00380
E00380
E00780
E00700
E00F00
FFFE00
FFFC00
FFF000
E00000
E00000
E00000
E00000
E00000
E00000
E00000
E00000
E00000
E00000
E00000
E00000
ENDCHAR
STARTCHAR 0051
ENCODING 81
SWIDTH 620 0
DWIDTH 25 0
BBX 23 29 1 0
BITMAP
00FE00
07FF80
0FFFC0
1E01E0
3C00F0
380070
700038
700038
700038
60001C
E0001C
E0001C
E0001C
E0001C
E0001C
E0001C
E0001C
E0001C
E0001C
EFC01C
7FF038
7FFC38
703E38
381F70
3C07F0
1E07E0
0FFFFE
07FFFE
00FE3E
ENDCHAR
STARTCHAR 0052
ENCODING 82
SWIDTH 546 0
DWIDTH 22 0
BBX 17 29 3 0
BITMAP
FFF000
FFFC00
FFFE00
E00F00
E00700
E00780
E00380
E00380
E00380
E00380
E00380
E00380
E00700
E00F00
E7FE00
E3FC00
E1F800
E1C000
E0E000
E0F000
E07000
E03800
E03C00
E01C00
E01E00
E00F00
E00700
E00780
E00380
ENDCHAR
STARTCHAR 0053
ENCODING 83
SWIDTH 496 0
DWIDTH 20 0
BBX 18 29 1 0
BITMAP
03F000
0FFC00
1FFE00
3C0F00
380700
700380
700380
700380
700380
780000
380000
3E0000
1FC000
0FF800
03FE00
007F00
000F80
000780
0003C0
0001C0
E001C0
E001C0
E001C0
F001C0
700380
780780
3FFF00
1FFE00
07F000
ENDCHAR
STARTCHAR 0054
ENCODING 84
SWIDTH 446 0
DWIDTH 18 0
BBX 17 29 0 0
BITMAP
FFFF80
FFFF80
FFFF80
01C000
01C000
01C000
01C000
01C000
01C000
01C000
01C000
01C000
01C000
01C000
01C000
01C000
01C000
01C000
01C000
01C000
01C000
01C000
01C000
01C000
01C000
01C000
01C000
01C000
01C000
ENDCHAR
STARTCHAR 0055
ENCODING 85
SWIDTH 546 0
DWIDTH 22 0
BBX 18 29 2 0
BITMAP
E001C0
E001C0
E001C0
E001C0
E001C0
E001C0
E001C0
E001C0
E001C0
E001C0
E001C0
E001C0
E001C0
E001C0
E001C0
E001C0
E001C0
E001C0
E001C0
E001C0
E001C0
E001C0
E001C0
F003C0
700380
780780
3FFF00
1FFE00
07F800
ENDCHAR
STARTCHAR 0056
ENCODING 86
SWIDTH 496 0
DWIDTH 20 0
BBX 20 29 0 0
BITMAP
E00070
E00070
7000E0
7000E0
7000E0
3000E0
3801C0
3801C0
3801C0
1C0180
1C0380
1C0380
0C0380
0E0300
0E0700
0E0700
070700
070600
070E00
030E00
038E00
038C00
039C00
019C00
01DC00
01D800
01F800
00F800
00F800
ENDCHAR
STARTCHAR 0057
ENCODING 87
SWIDTH 844 0
DWIDTH 34 0
BBX 32 29 0 0
BITMAP
E003C007
E003C007
E007C00E
E007C00E
7007E00E
7007E00C
7006E01C
380EE01C
380E601C
380E6018
380E7038
1C0E7038
1C0C7038
1C1C3030
0C1C3070
0E1C3870
0E1C3860
0E183860
061838E0
073818E0
07381CC0
07381DC0
03B81DC0
03B01DC0
03F00D80
01F00F80
01F00F80
01F00F00
01F00F00
ENDCHAR
STARTCHAR 0058
ENCODING 88
SWIDTH 496 0
DWIDTH 20 0
BBX 20 29 0 0
BITMAP
7801C0
3803C0
3C0380
1C0780
1E0700
0E0F00
0F0E00
070E00
079C00
039C00
03F800
01F800
01F000
00F000
00F000
01F800
01F800
03DC00
039C00
070E00
0F0E00
0E0700
1E0780
1C0380
3C03C0
3801C0
7801E0
7000E0
F000F0
ENDCHAR
STARTCHAR 0059
ENCODING 89
SWIDTH 496 0
DWIDTH 20 0
BBX 19 29 0 0
BITMAP
F000E0
7001C0
7001C0
7803C0
380380
3C0780
1C0700
1E0F00
0E0E00
0E0E00
071C00
071C00
03B800
03B800
01F000
01F000
00E000
00E000
00E000
00E000
00E000
00E000
00E000
00E000
00E000
00E000
00E000
00E000
00E000
ENDCHAR
STARTCHAR 005A
ENCODING 90
SWIDTH 446 0
DWIDTH 18 0
BBX 16 29 1 0
BITMAP
FFFF
FFFF
FFFF
000E
001E
001C
003C
0038
0078
0070
00F0
00E0
01E0
01C0
03C0
0380
0780
0700
0F00
0E00
1E00
1C00
3C00
3800
7800
7000
FFFF
FFFF
FFFF
ENDCHAR
STARTCHAR 005B
ENCODING 91
SWIDTH 397 0
DWIDTH 16 0
BBX 10 37 4 -8
BITMAP
FFC0
FFC0
E000
E000
E000
E000
E000
E000
E000
E000
E000
E000
E000
E000
E000
E000
E000
E000
E000
E000
E000
E000
E000
E000
E000
E000
E000
E000
E000
E000
E000
E000
E000
E000
E000
FFC0
FFC0
ENDCHAR
STARTCHAR 005C
ENCODING 92
SWIDTH 273 0
DWIDTH 11 0
BBX 12 29 -1 0
BITMAP
E000
E000
7000
7000
7000
3800
3800
1800
1C00
1C00
0C00
0E00
0E00
0600
0700
0700
0300
0380
0380
0180
01C0
01C0
00C0
00E0
00E0
0060
0070
0070
0030
ENDCHAR
STARTCHAR 005D
ENCODING 93
SWIDTH 397 0
DWIDTH 16 0
BBX 10 37 2 -8
BITMAP
FFC0
FFC0
01C0
01C0
01C0
01C0
01C0
01C0
01C0
01C0
01C0
01C0
01C0
01C0
01C0
01C0
01C0
01C0
01C0
01C0
01C0
01C0
01C0
01C0
01C0
01C0
01C0
01C0
01C0
01C0
01C0
01C0
01C0
01C0
01C0
FFC0
FFC0
ENDCHAR
STARTCHAR 005E
ENCODING 94
SWIDTH 595 0
DWIDTH 24 0
BBX 20 18 2 11
BITMAP
007000
00F000
00F800
01F800
01DC00
039C00
038E00
070E00
070F00
0E0700
0E0780
1C0380
1C03C0
3801C0
3801C0
7000E0
7000E0
E00070
ENDCHAR
STARTCHAR 005F
ENCODING 95
SWIDTH 496 0
DWIDTH 20 0
BBX 20 2 0 -5
BITMAP
FFFFF0
FFFFF0
ENDCHAR
STARTCHAR 0060
ENCODING 96
SWIDTH 223 0
DWIDTH 9 0
BBX 7 6 -1 24
BITMAP
E0
70
30
18
0C
06
ENDCHAR
STARTCHAR 0061
ENCODING 97
SWIDTH 496 0
DWIDTH 20 0
BBX 17 22 1 0
BITMAP
03E380
0FFB80
1FFF80
380F80
700780
700780
700780
E00380
E00380
E00380
E00380
E00380
E00380
E00380
E00380
700380
700780
780780
3C0F80
3FFF80
0FFB80
07E380
ENDCHAR
STARTCHAR 0062
ENCODING 98
SWIDTH 496 0
DWIDTH 20 0
BBX 16 29 2 0
BITMAP
E000
E000
E000
E000
E000
E000
E000
E3E0
EFF8
FFFC
F81C
F00E
F00E
E007
E007
E007
E007
E007
E007
E007
E007
E007
F00F
F00E
F00E
F81C
FFFC
EFF8
E7E0
ENDCHAR
STARTCHAR 0063
ENCODING 99
SWIDTH 446 0
DWIDTH 18 0
BBX 15 22 1 0
BITMAP
07E0
1FF8
3FF8
383C
701E
700E
F00E
E00E
E000
E000
E000
E000
E000
E000
E00E
F00E
700E
781E
383C
3FFC
1FF8
07E0
ENDCHAR
STARTCHAR 0064
ENCODING 100
SWIDTH 496 0
DWIDTH 20 0
BBX 16 29 1 0
BITMAP
0007
0007
0007
0007
0007
0007
0007
07C7
1FF7
3FFF
381F
700F
700F
7007
E007
E007
E007
E007
E007
E007
E007
E007
7007
700F
780F
381F
3FFF
1FF7
07C7
ENDCHAR
STARTCHAR 0065
ENCODING 101
SWIDTH 446 0
DWIDTH 18 0
BBX 16 22 1 0
BITMAP
03E0
0FF8
1FFC
3C1E
700E
700E
6007
E007
E007
FFFF
FFFF
FFFF
E000
E000
E007
7007
7007
780E
3C1E
1FFC
0FF8
03E0
ENDCHAR
STARTCHAR 0066
ENCODING 102
SWIDTH 223 0
DWIDTH 9 0
BBX 10 29 0 0
BITMAP
07C0
0FC0
1E00
1C00
1C00
1C00
1C00
FF80
FF80
1C00
1C00
1C00
1C00
1C00
1C00
1C00
1C00
1C00
1C00
1C00
1C00
1C00
1C00
1C00
1C00
1C00
1C00
1C00
1C00
ENDCHAR
STARTCHAR 0067
ENCODING 103
SWIDTH 496 0
DWIDTH 20 0
BBX 16 30 1 -8
BITMAP
07C7
1FF7
3FFF
381F
700F
700F
7007
E007
E007
E007
E007
E007
E007
E007
E007
7007
700F
780F
381F
3FFF
1FF7
07C7
0007
E007
E007
F00F
781E
7FFE
3FFC
0FE0
ENDCHAR
STARTCHAR 0068
ENCODING 104
SWIDTH 496 0
DWIDTH 20 0
BBX 15 29 2 0
BITMAP
E000
E000
E000
E000
E000
E000
E000
E3E0
EFF8
FFFC
F81C
F01E
E00E
E00E
E00E
E00E
E00E
E00E
E00E
E00E
E00E
E00E
E00E
E00E
E00E
E00E
E00E
E00E
E00E
ENDCHAR
STARTCHAR 0069
ENCODING 105
SWIDTH 223 0
DWIDTH 9 0
BBX 3 29 3 0
BITMAP
E0
E0
E0
E0
00
00
00
E0
E0
E0
E0
E0
E0
E0
E0
E0
E0
E0
E0
E0
E0
E0
E0
E0
E0
E0
E0
E0
E0
ENDCHAR
STARTCHAR 006A
ENCODING 106
SWIDTH 223 0
DWIDTH 9 0
BBX 8 37 -2 -7
BITMAP
07
07
07
00
00
00
00
07
07
07
07
07
07
07
07
07
07
07
07
07
07
07
07
07
07
07
07
07
07
07
07
07
07
0F
FE
FE
F8
ENDCHAR
STARTCHAR 006B
ENCODING 107
SWIDTH 446 0
DWIDTH 18 0
BBX 15 29 2 0
BITMAP
E000
E000
E000
E000
E000
E000
E000
E03C
E038
E070
E0E0
E0E0
E1C0
E380
E380
E780
EF80
EDC0
F9C0
F8E0
F0E0
E0F0
E070
E070
E038
E038
E01C
E01C
E00E
ENDCHAR
STARTCHAR 006C
ENCODING 108
SWIDTH 223 0
DWIDTH 9 0
BBX 3 29 3 0
BITMAP
E0
E0
E0
E0
E0
E0
E0
E0
E0
E0
E0
E0
E0
E0
E0
E0
E0
E0
E0
E0
E0
E0
E0
E0
E0
E0
E0
E0
E0
ENDCHAR
STARTCHAR 006D
ENCODING 109
SWIDTH 769 0
DWIDTH 31 0
BBX 26 22 2 0
BITMAP
E3F07E00
EFF8FF00
FFFDFF80
F81F83C0
F01F01C0
E00E01C0
E00E01C0
E00E01C0
E00E01C0
E00E01C0
E00E01C0
E00E01C0
E00E01C0
E00E01C0
E00E01C0
E00E01C0
E00E01C0
E00E01C0
E00E01C0
E00E01C0
E00E01C0
E00E01C0
ENDCHAR
STARTCHAR 006E
ENCODING 110
SWIDTH 496 0
DWIDTH 20 0
BBX 15 22 2 0
BITMAP
E3E0
EFF8
FFFC
F81C
F01E
E00E
E00E
E00E
E00E
E00E
E00E
E00E
E00E
E00E
E00E
E00E
E00E
E00E
E00E
E00E
E00E
E00E
ENDCHAR
STARTCHAR 006F
ENCODING 111
SWIDTH 496 0
DWIDTH 20 0
BBX 17 22 1 0
BITMAP
03F000
0FF800
1FFE00
3C1E00
780F00
700700
700780
E00380
E00380
E00380
E00380
E00380
E00380
E00380
E00380
700700
700700
780F00
3C1E00
1FFC00
0FF800
07E000
ENDCHAR
STARTCHAR 0070
ENCODING 112
SWIDTH 496 0
DWIDTH 20 0
BBX 16 30 2 -8
BITMAP
E3E0
EFF8
FFFC
F81C
F00E
F00E
E00F
E007
E007
E007
E007
E007
E007
E007
E007
F007
F00E
F00E
F81C
FFFC
EFF8
E3E0
E000
E000
E000
E000
E000
E000
E000
E000
ENDCHAR
STARTCHAR 0071
ENCODING 113
SWIDTH 496 0
DWIDTH 20 0
BBX 16 30 1 -8
BITMAP
07E7
1FF7
3FFF
381F
700F
700F
7007
E007
E007
E007
E007
E007
E007
E007
E007
7007
700F
700F
381F
3FFF
1FF7
07C7
0007
0007
0007
0007
0007
0007
0007
0007
ENDCHAR
STARTCHAR 0072
ENCODING 114
SWIDTH 273 0
DWIDTH 11 0
BBX 9 22 2 0
BITMAP
E780
EF80
FF80
F800
F000
F000
E000
E000
E000
E000
E000
E000
E000
E000
E000
E000
E000
E000
E000
E000
E000
E000
ENDCHAR
STARTCHAR 0073
ENCODING 115
SWIDTH 446 0
DWIDTH 18 0
BBX 15 22 1 0
BITMAP
07E0
1FF8
3FFC
381C
700E
700E
700E
7800
7C00
3F80
1FF0
07F8
007C
001E
000E
E00E
E00E
F00E
781C
7FFC
3FF8
0FE0
ENDCHAR
STARTCHAR 0074
ENCODING 116
SWIDTH 223 0
DWIDTH 9 0
BBX 9 29 0 0
BITMAP
1C00
1C00
1C00
1C00
1C00
1C00
1C00
FF80
FF80
1C00
1C00
1C00
1C00
1C00
1C00
1C00
1C00
1C00
1C00
1C00
1C00
1C00
1C00
1C00
1C00
1C00
1C00
1C00
1C00
ENDCHAR
STARTCHAR 0075
ENCODING 117
SWIDTH 496 0
DWIDTH 20 0
BBX 15 22 2 0
BITMAP
E00E
E00E
E00E
E00E
E00E
E00E
E00E
E00E
E00E
E00E
E00E
E00E
E00E
E00E
E00E
E00E
E00E
F01E
703E
7FFE
3FEE
0F8E
ENDCHAR
STARTCHAR 0076
ENCODING 118
SWIDTH 446 0
DWIDTH 18 0
BBX 17 22 0 0
BITMAP
E00380
F00780
700700
700700
780F00
380E00
380E00
380E00
3C1C00
1C1C00
1C1C00
1C3800
0E3800
0E3800
0E3800
077000
077000
077000
07E000
03E000
03E000
03C000
ENDCHAR
STARTCHAR 0077
ENCODING 119
SWIDTH 670 0
DWIDTH 27 0
BBX 27 22 0 0
BITMAP
E00F00E0
F00F00E0
701F01C0
701F01C0
701B01C0
381B8180
381B8380
383B8380
38398380
1C318300
1C31C700
1C31C700
0C71C700
0E70C600
0E60CE00
0E60EE00
0760EC00
07E06C00
07E07C00
03C07C00
03C07800
03C07800
ENDCHAR
STARTCHAR 0078
ENCODING 120
SWIDTH 446 0
DWIDTH 18 0
BBX 17 22 0 0
BITMAP
780700
380F00
3C0E00
1C1C00
1E1C00
0E3800
077800
077000
03E000
03E000
01C000
03E000
03E000
077000
0F7800
0E3800
1E3C00
1C1C00
380E00
380F00
700700
F00780
ENDCHAR
STARTCHAR 0079
ENCODING 121
SWIDTH 446 0
DWIDTH 18 0
BBX 17 30 0 -8
BITMAP
E00380
E00780
700700
700700
700700
380E00
380E00
380E00
181C00
1C1C00
1C1C00
0C1800
0E3800
0E3800
0E3000
067000
077000
076000
03E000
03E000
03C000
01C000
01C000
038000
038000
038000
070000
070000
070000
0F0000
ENDCHAR
STARTCHAR 007A
ENCODING 122
SWIDTH 446 0
DWIDTH 18 0
BBX 15 22 1 0
BITMAP
7FFE
7FFE
000E
001E
003C
0038
0078
00F0
00E0
01E0
03C0
0380
0700
0F00
0E00
1C00
3C00
3800
7000
F000
FFFE
FFFE
ENDCHAR
STARTCHAR 007B
ENCODING 123
SWIDTH 397 0
DWIDTH 16 0
BBX 12 37 2 -8
BITMAP
0FF0
1FF0
3E00
3800
3800
3800
3800
3800
3800
3800
3800
3800
3800
3800
3800
3800
7800
F800
E000
F800
7800
3800
3800
3800
3800
3800
3800
3800
3800
3800
3800
3800
3800
3800
3E00
1FF0
0FF0
ENDCHAR
STARTCHAR 007C
ENCODING 124
SWIDTH 223 0
DWIDTH 9 0
BBX 3 29 3 0
BITMAP
E0
E0
E0
E0
E0
E0
E0
E0
E0
E0
E0
E0
E0
E0
E0
E0
E0
E0
E0
E0
E0
E0
E0
E0
E0
E0
E0
E0
E0
ENDCHAR
STARTCHAR 007D
ENCODING 125
SWIDTH 397 0
DWIDTH 16 0
BBX 12 37 2 -8
BITMAP
FF00
FF80
07C0
01C0
01C0
01C0
01C0
01C0
01C0
01C0
01C0
01C0
01C0
01C0
01C0
01C0
01E0
01F0
0070
00F0
01E0
01C0
01C0
01C0
01C0
01C0
01C0
01C0
01C0
01C0
01C0
01C0
01C0
01C0
03C0
FF80
FF00
ENDCHAR
STARTCHAR 007E
ENCODING 126
SWIDTH 595 0
DWIDTH 24 0
BBX 18 6 3 7
BITMAP
1E0000
7FC0C0
7FF1C0
E1FF80
407F80
401E00
ENDCHAR
STARTCHAR 00A0
ENCODING 160
SWIDTH 273 0
DWIDTH 11 0
BBX 0 0 0 0
BITMAP
ENDCHAR
STARTCHAR 00A1
ENCODING 161
SWIDTH 223 0
DWIDTH 9 0
BBX 3 29 3 -7
BITMAP
E0
E0
E0
E0
00
00
00
E0
E0
E0
E0
E0
E0
E0
E0
E0
E0
E0
E0
E0
E0
E0
E0
E0
E0
E0
E0
E0
E0
ENDCHAR
STARTCHAR 00A2
ENCODING 162
SWIDTH 546 0
DWIDTH 22 0
BBX 15 29 3 0
BITMAP
0180
0180
0180
0180
0FF0
1FF8
3C7C
781C
700E
700E
E00E
E000
E000
E000
E000
E000
E000
E000
E00E
700E
700E
781C
3C78
1FF8
0FE0
0180
0180
0180
0180
ENDCHAR
STARTCHAR 00A3
ENCODING 163
SWIDTH 546 0
DWIDTH 22 0
BBX 19 29 1 0
BITMAP
01F800
07FE00
0FFF00
1E0F80
3C0380
3803C0
7001C0
7001C0
700000
700000
700000
780000
380000
FFFE00
FFFE00
0F0000
078000
038000
03C000
01C0E0
01C0E0
01C0E0
01C0E0
01C1E0
01C1C0
03C3C0
7FFF80
7FFF00
7FFC00
ENDCHAR
STARTCHAR 00A4
ENCODING 164
SWIDTH 546 0
DWIDTH 22 0
BBX 20 21 1 4
BITMAP
40F820
E7FE70
7FFFE0
3F0FC0
3C03C0
7801E0
7000E0
F000F0
E00070
E00070
E00070
E00070
E00070
F000F0
7000E0
7801E0
3C03C0
3F07C0
7FFFE0
E7FE70
41F020
ENDCHAR
STARTCHAR 00A5
ENCODING 165
SWIDTH 546 0
DWIDTH 22 0
BBX 19 29 1 0
BITMAP
F001E0
7001C0
7801C0
380380
380380
1C0700
1C0700
1E0F00
0E0E00
0F0E00
071C00
7F1FC0
7FBFC0
03B800
01F000
01F000
00E000
7FFFC0
7FFFC0
00E000
00E000
00E000
00E000
00E000
00E000
00E000
00E000
00E000
00E000
ENDCHAR
STARTCHAR 00A6
ENCODING 166
SWIDTH 223 0
DWIDTH 9 0
BBX 3 29 3 0
BITMAP
E0
E0
E0
E0
E0
E0
E0
E0
E0
E0
E0
00
00
00
00
00
00
00
E0
E0
E0
E0
E0
E0
E0
E0
E0
E0
E0
ENDCHAR
STARTCHAR 00A7
ENCODING 167
SWIDTH 446 0
DWIDTH 18 0
BBX 15 32 1 -4
BITMAP
07C0
1FF0
1C70
3838
3800
3800
3C00
1E00
0F00
3F80
7FC0
F1E0
E0F0
E078
F03C
701C
780E
3C0E
1E0E
0F1E
07FC
03F8
01E0
00F0
0070
0078
0038
1038
3838
3C70
1FF0
07C0
ENDCHAR
STARTCHAR 00A8
ENCODING 168
SWIDTH 223 0
DWIDTH 9 0
BBX 9 4 0 25
BITMAP
E380
E380
E380
E380
ENDCHAR
STARTCHAR 00A9
ENCODING 169
SWIDTH 794 0
DWIDTH 32 0
BBX 30 29 1 0
BITMAP
001FE000
00FFFC00
01FFFF00
07C00F80
0F0003C0
1E07C1E0
3C1FF0F0
387FF870
78783C38
70F01C38
70E00E3C
E1C0001C
E1C0001C
E1C0001C
E1C0001C
E1C0001C
E1C0001C
E1E00E1C
70E00E38
70F01C38
787C3C38
383FF870
3C1FF0F0
1E0781E0
0F0003C0
07C00F80
01FFFE00
00FFFC00
001FE000
ENDCHAR
STARTCHAR 00AA
ENCODING 170
SWIDTH 297 0
DWIDTH 12 0
BBX 11 13 0 16
BITMAP
1E60
3FE0
71E0
E0E0
C0E0
C0E0
C0E0
C0E0
C0E0
E0E0
71E0
3FE0
1F60
ENDCHAR
STARTCHAR 00AB
ENCODING 171
SWIDTH 446 0
DWIDTH 18 0
BBX 14 14 2 4
BITMAP
061C
0E38
1C70
3870
38E0
71C0
E180
E180
71C0
38E0
3870
1C70
0E38
061C
ENDCHAR
STARTCHAR 00AC
ENCODING 172
SWIDTH 595 0
DWIDTH 24 0
BBX 20 11 2 4
BITMAP
FFFFF0
FFFFF0
FFFFF0
000070
000070
000070
000070
000070
000070
000070
000070
ENDCHAR
STARTCHAR 00AD
ENCODING 173
SWIDTH 322 0
DWIDTH 13 0
BBX 10 2 2 9
BITMAP
FFC0
FFC0
ENDCHAR
STARTCHAR 00AE
ENCODING 174
SWIDTH 794 0
DWIDTH 32 0
BBX 30 29 1 0
BITMAP
001FE000
00FFFC00
01FFFE00
07C00F80
0F0003C0
1E0001E0
1C7FE0F0
387FF870
78703C78
70701C38
70701C38
E0701C1C
E0701C1C
E070381C
E07FF81C
E07FE01C
E071C01C
E070E01C
F070E03C
70707038
70707838
38703870
3C701CF0
1E0001E0
0F0003C0
07C00F80
03FFFF00
00FFFC00
001FE000
ENDCHAR
STARTCHAR 00AF
ENCODING 175
SWIDTH 223 0
DWIDTH 9 0
BBX 12 2 -1 26
BITMAP
FFF0
FFF0
ENDCHAR
STARTCHAR 00B0
ENCODING 176
SWIDTH 397 0
DWIDTH 16 0
BBX 11 11 2 18
BITMAP
1F00
3F80
71C0
E0E0
C060
C060
C060
E0E0
71C0
3F80
1F00
ENDCHAR
STARTCHAR 00B1
ENCODING 177
SWIDTH 595 0
DWIDTH 24 0
BBX 20 20 2 1
BITMAP
00E000
00E000
00E000
00E000
00E000
00E000
FFFFF0
FFFFF0
FFFFF0
00E000
00E000
00E000
00E000
00E000
00E000
00E000
000000
FFFFF0
FFFFF0
FFFFF0
ENDCHAR
STARTCHAR 00B2
ENCODING 178
SWIDTH 322 0
DWIDTH 13 0
BBX 11 17 1 12
BITMAP
1F00
7FC0
71E0
E0E0
E0E0
E0E0
00E0
01C0
03C0
0780
0F00
1E00
3C00
7800
F000
FFE0
FFE0
ENDCHAR
STARTCHAR 00B3
ENCODING 179
SWIDTH 322 0
DWIDTH 13 0
BBX 12 17 1 12
BITMAP
0F80
3FC0
39E0
70E0
70E0
00E0
01E0
07C0
07C0
01E0
00F0
0070
E070
E070
78E0
7FE0
1F80
ENDCHAR
STARTCHAR 00B4
ENCODING 180
SWIDTH 223 0
DWIDTH 9 0
BBX 7 6 2 24
BITMAP
0E
1C
38
70
60
C0
ENDCHAR
STARTCHAR 00B5
ENCODING 181
SWIDTH 496 0
DWIDTH 20 0
BBX 15 30 2 -8
BITMAP
E00E
E00E
E00E
E00E
E00E
E00E
E00E
E00E
E00E
E00E
E00E
E00E
E00E
E00E
E00E
E00E
E00E
F01E
F03E
FFFE
FFEE
FF8E
E000
E000
E000
E000
E000
E000
E000
E000
ENDCHAR
STARTCHAR 00B6
ENCODING 182
SWIDTH 595 0
DWIDTH 24 0
BBX 18 33 2 -4
BITMAP
07FFC0
1FFFC0
3FE1C0
7FE1C0
FFE1C0
FFE1C0
FFE1C0
FFE1C0
FFE1C0
FFE1C0
FFE1C0
7FE1C0
3FE1C0
1FE1C0
0FE1C0
00E1C0
00E1C0
00E1C0
00E1C0
00E1C0
00E1C0
00E1C0
00E1C0
00E1C0
00E1C0
00E1C0
00E1C0
00E1C0
00E1C0
00E1C0
00E1C0
00E1C0
00E1C0
ENDCHAR
STARTCHAR 00B7
ENCODING 183
SWIDTH 273 0
DWIDTH 11 0
BBX 4 4 4 8
BITMAP
60
F0
F0
60
ENDCHAR
STARTCHAR 00B8
ENCODING 184
SWIDTH 223 0
DWIDTH 9 0
BBX 8 8 1 -7
BITMAP
18
30
20
7E
07
07
FE
FC
ENDCHAR
STARTCHAR 00B9
ENCODING 185
SWIDTH 322 0
DWIDTH 13 0
BBX 6 17 2 12
BITMAP
FC
FC
1C
1C
1C
1C
1C
1C
1C
1C
1C
1C
1C
1C
1C
1C
1C
ENDCHAR
STARTCHAR 00BA
ENCODING 186
SWIDTH 297 0
DWIDTH 12 0
BBX 12 13 0 16
BITMAP
1F80
3FC0
79E0
70F0
E070
E070
E070
E070
E070
70F0
79E0
3FC0
1F80
ENDCHAR
STARTCHAR 00BB
ENCODING 187
SWIDTH 446 0
DWIDTH 18 0
BBX 14 14 2 4
BITMAP
E180
71C0
38E0
3870
1C70
0E38
061C
061C
0E38
1C70
3870
38E0
71C0
E180
ENDCHAR
STARTCHAR 00BC
ENCODING 188
SWIDTH 844 0
DWIDTH 34 0
BBX 28 29 3 0
BITMAP
FC001C00
FC001C00
1C003800
1C007800
1C007000
1C00F000
1C00E000
1C01E000
1C01C000
1C03C000
1C038000
1C0783C0
1C0707C0
1C0F07C0
1C0E0FC0
1C1E0FC0
1C1C1DC0
003C1DC0
003839C0
007831C0
007071C0
00F0E1C0
00E0E1C0
01C1FFF0
01C1FFF0
038001C0
038001C0
070001C0
070001C0
ENDCHAR
STARTCHAR 00BD
ENCODING 189
SWIDTH 844 0
DWIDTH 34 0
BBX 28 29 3 0
BITMAP
FC003800
FC003800
1C007000
1C007000
1C00E000
1C00E000
1C01C000
1C01C000
1C038000
1C038000
1C070000
1C070F80
1C0E1FE0
1C1E38F0
1C1C7070
1C3C7070
1C387070
00780070
007000F0
00F000E0
00E001C0
01E003C0
01C00780
03800F00
03801E00
07003C00
07007800
0E007FF0
1E007FF0
ENDCHAR
STARTCHAR 00BE
ENCODING 190
SWIDTH 844 0
DWIDTH 34 0
BBX 30 29 1 0
BITMAP
0F800380
3FE00380
38F00700
70700700
70700E00
00700E00
00F01C00
07E01C00
07E03800
01F03800
00787000
003870F0
E038E0F0
F038E1F0
78F1C3F0
7FF1C3F0
1FC38770
00038770
00070E70
00070E70
000E1C70
000E1870
001C3870
003C3FFC
00383FFC
00780070
00700070
00F00070
00E00070
ENDCHAR
STARTCHAR 00BF
ENCODING 191
SWIDTH 446 0
DWIDTH 18 0
BBX 15 30 1 -8
BITMAP
01C0
01C0
01C0
01C0
0000
0000
0000
01C0
01C0
01C0
01C0
01C0
01C0
03C0
0780
1F00
3E00
7800
7000
F000
E00E
E00E
E00E
E00E
F00E
701C
7C3C
3FF8
1FF0
07C0
ENDCHAR
STARTCHAR 00C0
ENCODING 192
SWIDTH 496 0
DWIDTH 20 0
BBX 20 37 0 0
BITMAP
070000
038000
01C000
00C000
006000
003000
000000
000000
00F000
01F000
01F000
01B800
01B800
03B800
039800
031C00
071C00
071C00
070E00
060E00
0E0E00
0E0E00
0E0700
0C0700
1C0700
1FFF80
1FFF80
1FFF80
3803C0
3801C0
3001C0
7001C0
7000E0
7000E0
6000E0
E000F0
E00070
ENDCHAR
STARTCHAR 00C1
ENCODING 193
SWIDTH 496 0
DWIDTH 20 0
BBX 20 37 0 0
BITMAP
000E00
001C00
003800
007000
006000
00C000
000000
000000
00F000
01F000
01F800
01F800
01B800
039C00
039C00
039C00
031C00
070E00
070E00
060E00
0E0600
0E0700
0E0700
0C0700
1C0380
1FFF80
1FFF80
1FFF80
3801C0
3801C0
3001C0
3000C0
7000E0
7000E0
6000E0
E00070
E00070
ENDCHAR
STARTCHAR 00C2
ENCODING 194
SWIDTH 496 0
DWIDTH 20 0
BBX 20 37 0 0
BITMAP
00F000
00F800
019800
039C00
070E00
0E0700
000000
000000
00F000
01F800
01F800
01F800
01B800
039C00
039C00
039C00
030C00
070E00
070E00
060E00
060700
0E0700
0E0700
0C0700
1C0380
1FFF80
1FFF80
1FFF80
3801C0
3801C0
3001C0
3000E0
7000E0
7000E0
6000E0
E00070
E00070
ENDCHAR
STARTCHAR 00C3
ENCODING 195
SWIDTH 496 0
DWIDTH 20 0
BBX 20 35 0 0
BITMAP
038100
07E300
0C7E00
081C00
000000
000000
00F000
01F000
01F800
01F800
01B800
039C00
039C00
039C00
031C00
070E00
070E00
060E00
0E0600
0E0700
0E0700
0C0700
1C0380
1FFF80
1FFF80
1FFF80
3801C0
3801C0
3001C0
3000C0
7000E0
7000E0
6000E0
E00070
E00070
ENDCHAR
STARTCHAR 00C4
ENCODING 196
SWIDTH 496 0
DWIDTH 20 0
BBX 20 35 0 0
BITMAP
038E00
038E00
038E00
038E00
000000
000000
00F000
00F800
00F800
00D800
01D800
019C00
019C00
038C00
038C00
030E00
070600
070600
060700
060700
0E0300
0C0300
0C0380
1FFF80
1FFF80
1FFF80
1801C0
3800C0
3800C0
3800E0
7000E0
7000E0
700060
E00070
E00070
ENDCHAR
STARTCHAR 00C5
ENCODING 197
SWIDTH 496 0
DWIDTH 20 0
BBX 20 39 0 0
BITMAP
00F800
01FC00
038E00
030600
030600
038E00
01FC00
00F800
000000
000000
00F800
00F800
00F800
01D800
01DC00
019C00
039C00
038C00
038E00
030E00
070600
070600
060700
0E0700
0E0300
0C0300
0C0380
1FFF80
1FFF80
1FFFC0
3801C0
3800C0
3800C0
3000E0
7000E0
7000E0
700060
E00070
E00070
ENDCHAR
STARTCHAR 00C6
ENCODING 198
SWIDTH 844 0
DWIDTH 34 0
BBX 30 29 0 0
BITMAP
0003FFFC
0003FFFC
0007FFFC
0007E000
000EE000
000EE000
001CE000
001CE000
0038E000
0038E000
0070E000
0070E000
00E0FFFC
00C0FFFC
01C0FFFC
0180E000
0380E000
07FFE000
07FFE000
0FFFE000
0E00E000
1C00E000
1C00E000
3800E000
3800E000
7000E000
7000FFFC
E000FFFC
E000FFFC
ENDCHAR
STARTCHAR 00C7
ENCODING 199
SWIDTH 546 0
DWIDTH 22 0
BBX 20 37 1 -8
BITMAP
01F800
07FE00
0FFF80
1E07C0
3C01C0
3801E0
7000E0
7000F0
700070
E00070
E00070
E00000
E00000
E00000
E00000
E00000
E00000
E00000
E00000
F00070
700070
700070
7000E0
3800E0
3C01E0
1E03C0
0FFF80
07FF00
01F800
006000
00C000
008000
01F800
001C00
001C00
03F800
03F000
ENDCHAR
STARTCHAR 00C8
ENCODING 200
SWIDTH 496 0
DWIDTH 20 0
BBX 14 37 3 0
BITMAP
3800
1C00
0E00
0600
0300
0180
0000
0000
FFFC
FFFC
FFFC
E000
E000
E000
E000
E000
E000
E000
E000
E000
FFFC
FFFC
FFFC
E000
E000
E000
E000
E000
E000
E000
E000
E000
E000
E000
FFFC
FFFC
FFFC
ENDCHAR
STARTCHAR 00C9
ENCODING 201
SWIDTH 496 0
DWIDTH 20 0
BBX 13 37 3 0
BITMAP
00E0
01C0
0180
0300
0600
0600
0000
0000
FFF8
FFF8
FFF8
E000
E000
E000
E000
E000
E000
E000
E000
E000
FFF8
FFF8
FFF8
E000
E000
E000
E000
E000
E000
E000
E000
E000
E000
E000
FFF8
FFF8
FFF8
ENDCHAR
STARTCHAR 00CA
ENCODING 202
SWIDTH 496 0
DWIDTH 20 0
BBX 15 37 3 0
BITMAP
0780
07C0
0CC0
1CE0
3870
7038
0000
0000
FFFE
FFFE
FFFE
E000
E000
E000
E000
E000
E000
E000
E000
E000
FFFE
FFFE
FFFE
E000
E000
E000
E000
E000
E000
E000
E000
E000
E000
E000
FFFE
FFFE
FFFE
ENDCHAR
STARTCHAR 00CB
ENCODING 203
SWIDTH 496 0
DWIDTH 20 0
BBX 15 35 3 0
BITMAP
1C70
1C70
1C70
1C70
0000
0000
FFFE
FFFE
FFFE
E000
E000
E000
E000
E000
E000
E000
E000
E000
FFFE
FFFE
FFFE
E000
E000
E000
E000
E000
E000
E000
E000
E000
E000
E000
FFFE
FFFE
FFFE
ENDCHAR
STARTCHAR 00CC
ENCODING 204
SWIDTH 223 0
DWIDTH 9 0
BBX 7 37 -1 0
BITMAP
E0
70
30
18
0C
06
00
00
1C
1C
1C
1C
1C
1C
1C
1C
1C
1C
1C
1C
1C
1C
1C
1C
1C
1C
1C
1C
1C
1C
1C
1C
1C
1C
1C
1C
1C
ENDCHAR
STARTCHAR 00CD
ENCODING 205
SWIDTH 223 0
DWIDTH 9 0
BBX 7 37 2 0
BITMAP
0E
1C
18
30
60
C0
00
00
70
70
70
70
70
70
70
70
70
70
70
70
70
70
70
70
70
70
70
70
70
70
70
70
70
70
70
70
70
ENDCHAR
STARTCHAR 00CE
ENCODING 206
SWIDTH 223 0
DWIDTH 9 0
BBX 12 37 -1 0
BITMAP
0E00
1F00
3B80
31C0
60E0
E070
0000
0000
0E00
0E00
0E00
0E00
0E00
0E00
0E00
0E00
0E00
0E00
0E00
0E00
0E00
0E00
0E00
0E00
0E00
0E00
0E00
0E00
0E00
0E00
0E00
0E00
0E00
0E00
0E00
0E00
0E00
ENDCHAR
STARTCHAR 00CF
ENCODING 207
SWIDTH 223 0
DWIDTH 9 0
BBX 9 35 0 0
BITMAP
E380
E380
E380
E380
0000
0000
1C00
1C00
1C00
1C00
1C00
1C00
1C00
1C00
1C00
1C00
1C00
1C00
1C00
1C00
1C00
1C00
1C00
1C00
1C00
1C00
1C00
1C00
1C00
1C00
1C00
1C00
1C00
1C00
1C00
ENDCHAR
STARTCHAR 00D0
ENCODING 208
SWIDTH 620 0
DWIDTH 25 0
BBX 23 29 0 0
BITMAP
1FFE00
1FFFC0
1FFFE0
1C01F0
1C0078
1C0038
1C003C
1C001C
1C001C
1C000E
1C000E
1C000E
FFFC0E
FFFC0E
FFFC0E
1C000E
1C000E
1C000E
1C000E
1C001C
1C001C
1C001C
1C0038
1C0038
1C0070
1C01F0
1FFFE0
1FFF80
1FFE00
ENDCHAR
STARTCHAR 00D1
ENCODING 209
SWIDTH 620 0
DWIDTH 25 0
BBX 18 35 3 0
BITMAP
070200
0FC600
18FC00
183800
000000
000000
F001C0
F001C0
F801C0
F801C0
FC01C0
FC01C0
FE01C0
EE01C0
EF01C0
E701C0
E781C0
E381C0
E3C1C0
E1C1C0
E0E1C0
E0E1C0
E071C0
E079C0
E039C0
E03DC0
E01DC0
E01FC0
E00FC0
E00FC0
E007C0
E007C0
E003C0
E003C0
E001C0
ENDCHAR
STARTCHAR 00D2
ENCODING 210
SWIDTH 620 0
DWIDTH 25 0
BBX 22 37 1 0
BITMAP
038000
01C000
00C000
006000
003000
001800
000000
000000
01FC00
07FF00
0FFFC0
1E01E0
3C00F0
380070
700038
700038
700038
E0001C
E0001C
E0001C
E0001C
E0001C
E0001C
E0001C
E0001C
E0001C
E0001C
E0001C
700038
700038
700078
380070
3C00E0
1E03E0
0FFFC0
07FF00
01FC00
ENDCHAR
STARTCHAR 00D3
ENCODING 211
SWIDTH 620 0
DWIDTH 25 0
BBX 22 37 1 0
BITMAP
000F00
000E00
001C00
003800
007000
006000
000000
000000
00FC00
07FF80
0FFFC0
1E01E0
3C00F0
380070
700038
700038
700038
60001C
E0001C
E0001C
E0001C
E0001C
E0001C
E0001C
E0001C
E0001C
E0001C
E0001C
700038
700038
700038
380070
3C00F0
1E01E0
0FFFC0
07FF80
01FC00
ENDCHAR
STARTCHAR 00D4
ENCODING 212
SWIDTH 620 0
DWIDTH 25 0
BBX 22 37 1 0
BITMAP
007800
00FC00
00CC00
01CE00
038700
070380
000000
000000
00FE00
07FF80
0FFFC0
1E01E0
3C00F0
380070
700038
700038
700038
60001C
E0001C
E0001C
E0001C
E0001C
E0001C
E0001C
E0001C
E0001C
E0001C
E0001C
700038
700038
780038
380070
3C00F0
1E01E0
0FFFC0
07FF80
01FC00
ENDCHAR
STARTCHAR 00D5
ENCODING 213
SWIDTH 620 0
DWIDTH 25 0
BBX 22 35 1 0
BITMAP
01C180
07F180
067F00
0C1E00
000000
000000
01FC00
07FF80
0FFFC0
1E01E0
3C00F0
380070
700038
700038
700038
60001C
E0001C
E0001C
E0001C
E0001C
E0001C
E0001C
E0001C
E0001C
E0001C
E0001C
700038
700038
700038
380070
3C00F0
1E01E0
0FFFC0
07FF00
01FC00
ENDCHAR
STARTCHAR 00D6
ENCODING 214
SWIDTH 620 0
DWIDTH 25 0
BBX 22 35 1 0
BITMAP
01C700
01C700
01C700
01C700
000000
000000
00FE00
03FF80
0FFFC0
1E01E0
1C00F0
380070
700038
700038
700038
60001C
E0001C
E0001C
E0001C
E0001C
E0001C
E0001C
E0001C
E0001C
E0001C
70001C
700038
700038
780038
380070
3C00F0
1F01E0
0FFFC0
03FF80
00FE00
ENDCHAR
STARTCHAR 00D7
ENCODING 215
SWIDTH 595 0
DWIDTH 24 0
BBX 20 20 2 1
BITMAP
600060
F000F0
7801E0
3C03C0
1E0780
0F0F00
079E00
03FC00
01F800
00F000
01F800
03FC00
079E00
0F0F00
1E0780
3C03C0
7801E0
F001F0
F000E0
400040
ENDCHAR
STARTCHAR 00D8
ENCODING 216
SWIDTH 620 0
DWIDTH 25 0
BBX 22 31 1 -1
BITMAP
00001C
00FE18
07FFB8
0FFFF0
1E01F0
3C00F0
3801F0
7001F8
7003B8
700738
60071C
E00E1C
E01C1C
E03C1C
E0381C
E0701C
E0E01C
E0E01C
E1C01C
E3801C
F3801C
770038
7E0038
7E0038
3C0070
3C00F0
3E01E0
7FFFC0
67FF80
E0FC00
C00000
ENDCHAR
STARTCHAR 00D9
ENCODING 217
SWIDTH 546 0
DWIDTH 22 0
BBX 18 37 2 0
BITMAP
0E0000
070000
030000
018000
00C000
006000
000000
000000
E001C0
E001C0
E001C0
E001C0
E001C0
E001C0
E001C0
E001C0
E001C0
E001C0
E001C0
E001C0
E001C0
E001C0
E001C0
E001C0
E001C0
E001C0
E001C0
E001C0
E001C0
E001C0
E001C0
F003C0
700380
780780
3FFF00
1FFE00
07F000
ENDCHAR
STARTCHAR 00DA
ENCODING 218
SWIDTH 546 0
DWIDTH 22 0
BBX 18 37 2 0
BITMAP
003800
007000
00E000
00C000
018000
030000
000000
000000
E001C0
E001C0
E001C0
E001C0
E001C0
E001C0
E001C0
E001C0
E001C0
E001C0
E001C0
E001C0
E001C0
E001C0
E001C0
E001C0
E001C0
E001C0
E001C0
E001C0
E001C0
E001C0
E001C0
F003C0
700380
780F80
3FFF00
1FFE00
07F000
ENDCHAR
STARTCHAR 00DB
ENCODING 219
SWIDTH 546 0
DWIDTH 22 0
BBX 18 37 2 0
BITMAP
01E000
03F000
033000
063800
0E1C00
1C0E00
000000
000000
E001C0
E001C0
E001C0
E001C0
E001C0
E001C0
E001C0
E001C0
E001C0
E001C0
E001C0
E001C0
E001C0
E001C0
E001C0
E001C0
E001C0
E001C0
E001C0
E001C0
E001C0
E001C0
E001C0
F003C0
700380
780780
3FFF00
1FFE00
07F800
ENDCHAR
STARTCHAR 00DC
ENCODING 220
SWIDTH 546 0
DWIDTH 22 0
BBX 18 35 2 0
BITMAP
071C00
071C00
071C00
071C00
000000
000000
E001C0
E001C0
E001C0
E001C0
E001C0
E001C0
E001C0
E001C0
E001C0
E001C0
E001C0
E001C0
E001C0
E001C0
E001C0
E001C0
E001C0
E001C0
E001C0
E001C0
E001C0
E001C0
E001C0
F003C0
700380
7C0780
3FFF00
1FFE00
07F800
ENDCHAR
STARTCHAR 00DD
ENCODING 221
SWIDTH 496 0
DWIDTH 20 0
BBX 19 37 0 0
BITMAP
001C00
003800
007000
006000
00C000
018000
000000
000000
F001E0
F001C0
7001C0
780380
380380
3C0700
1C0700
1E0F00
0E0E00
0E0E00
071C00
071C00
03B800
03B800
01F000
01F000
00E000
00E000
00E000
00E000
00E000
00E000
00E000
00E000
00E000
00E000
00E000
00E000
00E000
ENDCHAR
STARTCHAR 00DE
ENCODING 222
SWIDTH 546 0
DWIDTH 22 0
BBX 17 29 3 0
BITMAP
E00000
E00000
E00000
E00000
E00000
FFE000
FFFC00
FFFE00
E01F00
E00700
E00780
E00380
E00380
E00380
E00380
E00380
E00380
E00780
E00700
E01F00
FFFE00
FFFC00
FFE000
E00000
E00000
E00000
E00000
E00000
E00000
ENDCHAR
STARTCHAR 00DF
ENCODING 223
SWIDTH 546 0
DWIDTH 22 0
BBX 17 29 3 0
BITMAP
07E000
1FF800
3FFC00
783C00
701E00
F00E00
E00E00
E00E00
E00E00
E00E00
E01E00
E01C00
E07C00
E3F800
E3FC00
E3FE00
E01F00
E00700
E00780
E00380
E00380
F80380
F80380
F80380
FC0700
EE0F00
EFFE00
E7FC00
E1F000
ENDCHAR
STARTCHAR 00E0
ENCODING 224
SWIDTH 496 0
DWIDTH 20 0
BBX 17 30 1 0
BITMAP
0E0000
070000
030000
018000
00C000
00E000
000000
000000
07E380
0FFB80
1FFF80
381F80
700780
700780
700780
E00380
E00380
E00380
E00380
E00380
E00380
E00380
E00380
700380
700780
780780
3C0F80
3FFF80
1FFB80
07E380
ENDCHAR
STARTCHAR 00E1
ENCODING 225
SWIDTH 496 0
DWIDTH 20 0
BBX 17 30 1 0
BITMAP
003800
007000
00E000
00C000
018000
030000
000000
000000
07E380
1FFB80
3FFB80
381F80
700F80
700780
700780
E00380
E00380
E00380
E00380
E00380
E00380
E00380
E00380
700780
700780
780F80
381F80
3FFB80
1FFB80
07E380
ENDCHAR
STARTCHAR 00E2
ENCODING 226
SWIDTH 496 0
DWIDTH 20 0
BBX 16 30 1 0
BITMAP
03C0
03E0
0660
0E70
1C38
381C
0000
0000
07C7
1FF7
3FFF
381F
700F
700F
7007
E007
E007
E007
E007
E007
E007
E007
E007
7007
700F
780F
381F
3FFF
1FF7
07C7
ENDCHAR
STARTCHAR 00E3
ENCODING 227
SWIDTH 496 0
DWIDTH 20 0
BBX 16 29 1 0
BITMAP
0E04
1F8C
31F8
3070
0000
0000
0000
07C7
1FF7
3FFF
381F
700F
700F
7007
E007
E007
E007
E007
E007
E007
E007
E007
7007
700F
780F
381F
3FFF
1FF7
07C7
ENDCHAR
STARTCHAR 00E4
ENCODING 228
SWIDTH 496 0
DWIDTH 20 0
BBX 17 29 1 0
BITMAP
0E3800
0E3800
0E3800
0E3800
000000
000000
000000
07E380
0FFB80
1FFF80
380F80
700780
700780
700780
E00380
E00380
E00380
E00380
E00380
E00380
E00380
E00380
700380
700780
780780
3C0F80
3FFF80
0FFB80
07E380
ENDCHAR
STARTCHAR 00E5
ENCODING 229
SWIDTH 496 0
DWIDTH 20 0
BBX 17 33 1 0
BITMAP
01E000
07F000
063800
0C1800
0C1800
0C1800
063000
07F000
01C000
000000
000000
03E380
0FFB80
1FFF80
380F80
700780
700780
700780
E00380
E00380
E00380
E00380
E00380
E00380
E00380
E00380
700380
700780
780780
3C0F80
3FFF80
0FFB80
07E380
ENDCHAR
STARTCHAR 00E6
ENCODING 230
SWIDTH 769 0
DWIDTH 31 0
BBX 29 22 1 0
BITMAP
07E38F80
0FFBBFC0
1FFFBFE0
380FE0F0
7007C070
7007C070
70038038
E0038038
E0038038
E003FFF8
E003FFF8
E003FFF8
E0038000
E0038000
E0038038
7003C038
7007C038
7807E070
3C0FE0F0
1FFFFFE0
0FFBBFC0
07E39F00
ENDCHAR
STARTCHAR 00E7
ENCODING 231
SWIDTH 446 0
DWIDTH 18 0
BBX 15 30 1 -8
BITMAP
07E0
1FF8
3FF8
383C
701E
700E
F00E
E00E
E000
E000
E000
E000
E000
E000
E00E
F00E
700E
781E
383C
3FF8
1FF8
07E0
0180
0300
0200
07E0
0070
0070
0FE0
0FC0
ENDCHAR
STARTCHAR 00E8
ENCODING 232
SWIDTH 446 0
DWIDTH 18 0
BBX 16 30 1 0
BITMAP
1C00
0E00
0700
0300
0180
00C0
0000
0000
07E0
0FF8
1FFC
381E
700E
700E
6007
E007
E007
FFFF
FFFF
FFFF
E000
E000
E007
7007
7007
780E
3C1E
3FFC
1FF8
07E0
ENDCHAR
STARTCHAR 00E9
ENCODING 233
SWIDTH 446 0
DWIDTH 18 0
BBX 15 30 1 0
BITMAP
0070
00E0
00C0
0180
0300
0600
0000
0000
07C0
0FF0
1FF8
383C
701C
701C
600E
E00E
E00E
FFFE
FFFE
FFFE
E000
E000
E00E
700E
700E
781C
3C3C
3FF8
1FF0
07C0
ENDCHAR
STARTCHAR 00EA
ENCODING 234
SWIDTH 446 0
DWIDTH 18 0
BBX 16 30 1 0
BITMAP
03C0
07E0
0660
0C70
1C38
381C
0000
0000
03E0
0FF8
1FFC
3C1E
700E
700E
6007
E007
E007
FFFF
FFFF
FFFF
E000
E000
E007
7007
7007
780E
3C1E
1FFC
0FF8
03E0
ENDCHAR
STARTCHAR 00EB
ENCODING 235
SWIDTH 446 0
DWIDTH 18 0
BBX 16 29 1 0
BITMAP
1C70
1C70
1C70
1C70
0000
0000
0000
07E0
0FF8
3FFC
381E
700E
700E
6007
E007
E007
FFFF
FFFF
FFFF
E000
E000
E007
7007
700F
780E
3C1E
3FFC
1FF8
07E0
ENDCHAR
STARTCHAR 00EC
ENCODING 236
SWIDTH 223 0
DWIDTH 9 0
BBX 7 30 -1 0
BITMAP
E0
70
30
18
0C
06
00
00
1C
1C
1C
1C
1C
1C
1C
1C
1C
1C
1C
1C
1C
1C
1C
1C
1C
1C
1C
1C
1C
1C
ENDCHAR
STARTCHAR 00ED
ENCODING 237
SWIDTH 223 0
DWIDTH 9 0
BBX 7 30 2 0
BITMAP
0E
1C
18
30
60
C0
00
00
70
70
70
70
70
70
70
70
70
70
70
70
70
70
70
70
70
70
70
70
70
70
ENDCHAR
STARTCHAR 00EE
ENCODING 238
SWIDTH 223 0
DWIDTH 9 0
BBX 12 30 -1 0
BITMAP
0700
0F80
1DC0
38C0
7060
E070
0000
0000
0700
0700
0700
0700
0700
0700
0700
0700
0700
0700
0700
0700
0700
0700
0700
0700
0700
0700
0700
0700
0700
0700
ENDCHAR
STARTCHAR 00EF
ENCODING 239
SWIDTH 223 0
DWIDTH 9 0
BBX 9 29 0 0
BITMAP
E380
E380
E380
E380
0000
0000
0000
1C00
1C00
1C00
1C00
1C00
1C00
1C00
1C00
1C00
1C00
1C00
1C00
1C00
1C00
1C00
1C00
1C00
1C00
1C00
1C00
1C00
1C00
ENDCHAR
STARTCHAR 00F0
ENCODING 240
SWIDTH 496 0
DWIDTH 20 0
BBX 17 29 1 0
BITMAP
040600
1F0E00
07BC00
03F800
01E000
03F000
0F3800
0E1C00
081C00
000E00
01EE00
0FFF00
1FFF00
3C1F00
780F80
700780
F00780
E00380
E00380
E00380
E00380
E00380
F00380
700700
780F00
3C1E00
3FFE00
1FFC00
07F000
ENDCHAR
STARTCHAR 00F1
ENCODING 241
SWIDTH 496 0
DWIDTH 20 0
BBX 15 29 2 0
BITMAP
0C08
3F98
33F0
60F0
0000
0000
0000
E3E0
EFF8
FFFC
F81C
F01E
E00E
E00E
E00E
E00E
E00E
E00E
E00E
E00E
E00E
E00E
E00E
E00E
E00E
E00E
E00E
E00E
E00E
ENDCHAR
STARTCHAR 00F2
ENCODING 242
SWIDTH 496 0
DWIDTH 20 0
BBX 17 30 1 0
BITMAP
0E0000
070000
030000
018000
00C000
006000
000000
000000
03F000
0FFC00
1FFE00
3C1E00
780F00
700700
700780
E00380
E00380
E00380
E00380
E00380
E00380
E00380
E00380
700700
700700
780F00
3C1E00
1FFE00
0FF800
07F000
ENDCHAR
STARTCHAR 00F3
ENCODING 243
SWIDTH 496 0
DWIDTH 20 0
BBX 17 30 1 0
BITMAP
003800
007000
00E000
00C000
018000
030000
000000
000000
07E000
0FF800
1FFC00
3C1E00
780F00
700700
700780
E00380
E00380
E00380
E00380
E00380
E00380
E00380
E00380
700700
700700
780F00
3C1E00
3FFC00
0FF800
07E000
ENDCHAR
STARTCHAR 00F4
ENCODING 244
SWIDTH 496 0
DWIDTH 20 0
BBX 18 30 1 0
BITMAP
01E000
03F000
033000
063800
0E1C00
1C0E00
000000
000000
03F000
0FFC00
1FFE00
3C0F00
780780
700380
700380
E001C0
E001C0
E001C0
E001C0
E001C0
E001C0
E001C0
E001C0
700380
700380
780780
3C0F00
1FFE00
0FFC00
03F000
ENDCHAR
STARTCHAR 00F5
ENCODING 245
SWIDTH 496 0
DWIDTH 20 0
BBX 17 29 1 0
BITMAP
060400
1FCC00
19F800
107800
000000
000000
000000
03F000
0FF800
1FFE00
3C1E00
780F00
700700
700780
E00380
E00380
E00380
E00380
E00380
E00380
E00380
E00380
700700
700700
780F00
3C1E00
1FFC00
0FF800
07E000
ENDCHAR
STARTCHAR 00F6
ENCODING 246
SWIDTH 496 0
DWIDTH 20 0
BBX 17 29 1 0
BITMAP
0E3800
0E3800
0E3800
0E3800
000000
000000
000000
03F000
0FF800
1FFE00
3C1E00
780F00
700700
700780
E00380
E00380
E00380
E00380
E00380
E00380
E00380
E00380
700700
700700
780F00
3C1E00
1FFC00
0FF800
07E000
ENDCHAR
STARTCHAR 00F7
ENCODING 247
SWIDTH 595 0
DWIDTH 24 0
BBX 19 22 2 0
BITMAP
00E000
01F000
01F000
01F000
00E000
000000
000000
000000
000000
FFFFE0
FFFFE0
FFFFE0
000000
000000
000000
000000
000000
00E000
01F000
01F000
01F000
00E000
ENDCHAR
STARTCHAR 00F8
ENCODING 248
SWIDTH 496 0
DWIDTH 20 0
BBX 17 28 1 -3
BITMAP
000380
000300
000700
03F600
0FFE00
1FFC00
3C1E00
783F00
703F00
707700
E06380
E0E380
E0C380
E1C380
E18380
E38380
E30380
E70380
760700
7E0700
7C0F00
3C1E00
3FFC00
3FF800
73E000
600000
E00000
C00000
ENDCHAR
STARTCHAR 00F9
ENCODING 249
SWIDTH 496 0
DWIDTH 20 0
BBX 15 30 2 0
BITMAP
1C00
0E00
0600
0300
0180
00C0
0000
0000
E00E
E00E
E00E
E00E
E00E
E00E
E00E
E00E
E00E
E00E
E00E
E00E
E00E
E00E
E00E
E00E
E00E
F01E
703E
7FFE
3FEE
0F8E
ENDCHAR
STARTCHAR 00FA
ENCODING 250
SWIDTH 496 0
DWIDTH 20 0
BBX 15 30 2 0
BITMAP
0070
00E0
00C0
0180
0300
0600
0000
0000
E00E
E00E
E00E
E00E
E00E
E00E
E00E
E00E
E00E
E00E
E00E
E00E
E00E
E00E
E00E
E00E
E00E
F01E
703E
7FFE
3FEE
0F8E
ENDCHAR
STARTCHAR 00FB
ENCODING 251
SWIDTH 496 0
DWIDTH 20 0
BBX 16 30 2 0
BITMAP
03C0
07E0
0660
0C30
1C38
381C
0000
0000
E007
E007
E007
E007
E007
E007
E007
E007
E007
E007
E007
E007
E007
E007
E007
E007
E007
F00F
781F
7FFF
3FF7
0FC7
ENDCHAR
STARTCHAR 00FC
ENCODING 252
SWIDTH 496 0
DWIDTH 20 0
BBX 15 29 2 0
BITMAP
1C70
1C70
1C70
1C70
0000
0000
0000
E00E
E00E
E00E
E00E
E00E
E00E
E00E
E00E
E00E
E00E
E00E
E00E
E00E
E00E
E00E
E00E
E00E
F01E
703E
7FFE
3FEE
0F8E
ENDCHAR
STARTCHAR 00FD
ENCODING 253
SWIDTH 446 0
DWIDTH 18 0
BBX 17 38 0 -8
BITMAP
003800
007000
00E000
00C000
018000
030000
000000
000000
E00780
E00780
700700
700700
700F00
380E00
380E00
381E00
181C00
1C1C00
1C1C00
0C3800
0E3800
0E3800
0E7000
067000
077000
076000
03E000
03E000
03C000
01C000
01C000
038000
038000
038000
070000
070000
070000
0E0000
ENDCHAR
STARTCHAR 00FE
ENCODING 254
SWIDTH 496 0
DWIDTH 20 0
BBX 16 37 2 -8
BITMAP
E000
E000
E000
E000
E000
E000
E000
E7E0
EFF8
FFFC
F81C
F00E
F00E
E00F
E007
E007
E007
E007
E007
E007
E007
E007
F007
F00E
F00E
F81C
FFFC
EFF8
E3E0
E000
E000
E000
E000
E000
E000
E000
E000
ENDCHAR
STARTCHAR 00FF
ENCODING 255
SWIDTH 446 0
DWIDTH 18 0
BBX 17 37 0 -8
BITMAP
0E3800
0E3800
0E3800
0E3800
000000
000000
000000
E00380
E00380
700700
700700
700700
300E00
380E00
380E00
181C00
1C1C00
1C1C00
0C3800
0C3800
0E3800
0E3000
067000
077000
076000
03E000
03E000
03C000
01C000
01C000
038000
038000
038000
070000
070000
070000
0E0000
ENDCHAR
STARTCHAR 0131
ENCODING 305
SWIDTH 223 0
DWIDTH 9 0
BBX 3 22 3 0
BITMAP
E0
E0
E0
E0
E0
E0
E0
E0
E0
E0
E0
E0
E0
E0
E0
E0
E0
E0
E0
E0
E0
E0
ENDCHAR
STARTCHAR 0141
ENCODING 321
SWIDTH 446 0
DWIDTH 18 0
BBX 17 29 0 0
BITMAP
1C0000
1C0000
1C0000
1C0000
1C0000
1C0000
1C0000
1C0000
1C0000
1C0000
1C1800
1C7800
1FF800
1FE000
7F0000
FC0000
FC0000
9C0000
1C0000
1C0000
1C0000
1C0000
1C0000
1C0000
1C0000
1C0000
1FFF80
1FFF80
1FFF80
ENDCHAR
STARTCHAR 0142
ENCODING 322
SWIDTH 223 0
DWIDTH 9 0
BBX 9 29 0 0
BITMAP
1C00
1C00
1C00
1C00
1C00
1C00
1C00
1C00
1C00
1C00
1D80
1F80
1F80
7E00
FC00
FC00
9C00
1C00
1C00
1C00
1C00
1C00
1C00
1C00
1C00
1C00
1C00
1C00
1C00
ENDCHAR
STARTCHAR 0152
ENCODING 338
SWIDTH 943 0
DWIDTH 38 0
BBX 34 29 1 0
BITMAP
00FE1FFFC0
07FF9FFFC0
0FFFDFFFC0
1E03FC0000
3C00FC0000
3800FC0000
70007C0000
70003C0000
70003C0000
60003C0000
E0001C0000
E0001C0000
E0001FFFC0
E0001FFFC0
E0001FFFC0
E0001C0000
E0001C0000
E0001C0000
E0001C0000
70001C0000
70003C0000
70003C0000
78007C0000
38007C0000
3C00FC0000
1E01FC0000
0FFFDFFFC0
07FF9FFFC0
00FE1FFFC0
ENDCHAR
STARTCHAR 0153
ENCODING 339
SWIDTH 769 0
DWIDTH 31 0
BBX 29 22 1 0
BITMAP
07E01F00
0FF87FC0
3FF8FFE0
3C1DE0F0
780F8070
700F8070
700F0038
E0070038
E0070038
E007FFF8
E007FFF8
E007FFF8
E0070000
E0070000
E0070038
700F8038
700F8038
780FC070
3C1DE0F0
3FFDFFE0
0FF8FFC0
07E03F00
ENDCHAR
STARTCHAR 0160
ENCODING 352
SWIDTH 496 0
DWIDTH 20 0
BBX 18 37 1 0
BITMAP
1C0E00
0E1C00
073800
037000
03E000
01C000
000000
000000
03F000
0FFC00
1FFE00
3C0F00
380700
700380
700380
700380
700380
780000
380000
3E0000
1FC000
0FF800
03FE00
007F00
000F80
000780
0003C0
0001C0
E001C0
E001C0
E001C0
F001C0
700380
780780
3FFF00
1FFE00
07F000
ENDCHAR
STARTCHAR 0161
ENCODING 353
SWIDTH 446 0
DWIDTH 18 0
BBX 15 30 1 0
BITMAP
381C
1C38
0E70
0660
03C0
03C0
0000
0000
07E0
1FF8
3FFC
381C
700E
700E
700E
7800
7C00
3F80
1FF0
07F8
007C
001E
000E
E00E
E00E
F00E
781C
7FFC
3FF8
0FE0
ENDCHAR
STARTCHAR 0178
ENCODING 376
SWIDTH 496 0
DWIDTH 20 0
BBX 19 35 0 0
BITMAP
071C00
071C00
071C00
071C00
000000
000000
F000E0
7001E0
7001C0
7801C0
380380
3C0380
1C0700
1E0700
0E0E00
0F0E00
071C00
071C00
03B800
03B800
01F000
01F000
00E000
00E000
00E000
00E000
00E000
00E000
00E000
00E000
00E000
00E000
00E000
00E000
00E000
ENDCHAR
STARTCHAR 017D
ENCODING 381
SWIDTH 446 0
DWIDTH 18 0
BBX 16 37 1 0
BITMAP
381C
1C38
0E70
0660
07C0
03C0
0000
0000
FFFF
FFFF
FFFF
000E
001E
001C
003C
0038
0078
0070
00F0
00E0
01E0
01C0
03C0
0380
0780
0700
0F00
0E00
1E00
1C00
3C00
3800
7800
7000
FFFF
FFFF
FFFF
ENDCHAR
STARTCHAR 017E
ENCODING 382
SWIDTH 446 0
DWIDTH 18 0
BBX 15 30 1 0
BITMAP
381C
1C38
0C70
0660
07C0
03C0
0000
0000
7FFE
7FFE
000E
001E
003C
0038
0078
00F0
00E0
01E0
03C0
0380
0700
0F00
0E00
1C00
3C00
3800
7000
F000
FFFE
FFFE
ENDCHAR
STARTCHAR 0192
ENCODING 402
SWIDTH 546 0
DWIDTH 22 0
BBX 20 37 1 -8
BITMAP
0003F0
000FF0
000FF0
001C00
003800
003800
003800
003000
007000
007000
007000
007000
1FFFC0
1FFFC0
007000
007000
007000
007000
007000
007000
007000
007000
007000
007000
00F000
00F000
00E000
00E000
00E000
00E000
00E000
01C000
01C000
03C000
FF8000
FF0000
FC0000
ENDCHAR
STARTCHAR 02C6
ENCODING 710
SWIDTH 223 0
DWIDTH 9 0
BBX 12 6 -1 24
BITMAP
0F00
1F80
1980
39C0
70E0
E070
ENDCHAR
STARTCHAR 02C7
ENCODING 711
SWIDTH 223 0
DWIDTH 9 0
BBX 12 6 -1 24
BITMAP
E070
70E0
39C0
1980
1F80
0F00
ENDCHAR
STARTCHAR 02C9
ENCODING 713
SWIDTH 223 0
DWIDTH 9 0
BBX 12 2 -1 26
BITMAP
FFF0
FFF0
ENDCHAR
STARTCHAR 02D8
ENCODING 728
SWIDTH 223 0
DWIDTH 9 0
BBX 11 5 -1 25
BITMAP
C060
C060
60C0
3F80
1E00
ENDCHAR
STARTCHAR 02D9
ENCODING 729
SWIDTH 223 0
DWIDTH 9 0
BBX 3 4 3 25
BITMAP
E0
E0
E0
E0
ENDCHAR
STARTCHAR 02DA
ENCODING 730
SWIDTH 223 0
DWIDTH 9 0
BBX 9 9 0 24
BITMAP
1E00
7F00
6300
C180
C180
C180
6300
7F00
1C00
ENDCHAR
STARTCHAR 02DB
ENCODING 731
SWIDTH 223 0
DWIDTH 9 0
BBX 10 9 0 -7
BITMAP
0300
1C00
3000
7000
E000
E000
E1C0
7F00
3C00
ENDCHAR
STARTCHAR 02DC
ENCODING 732
SWIDTH 223 0
DWIDTH 9 0
BBX 12 4 -2 24
BITMAP
3830
7E30
CFE0
83C0
ENDCHAR
STARTCHAR 02DD
ENCODING 733
SWIDTH 223 0
DWIDTH 9 0
BBX 12 6 0 24
BITMAP
0E70
1CE0
39C0
3380
6300
C600
ENDCHAR
STARTCHAR 03BC
ENCODING 956
SWIDTH 496 0
DWIDTH 20 0
BBX 15 30 2 -8
BITMAP
E00E
E00E
E00E
E00E
E00E
E00E
E00E
E00E
E00E
E00E
E00E
E00E
E00E
E00E
E00E
E00E
E00E
F01E
F03E
FFFE
FFEE
FF8E
E000
E000
E000
E000
E000
E000
E000
E000
ENDCHAR
STARTCHAR 2013
ENCODING 8211
SWIDTH 496 0
DWIDTH 20 0
BBX 20 2 0 10
BITMAP
FFFFF0
FFFFF0
ENDCHAR
STARTCHAR 2014
ENCODING 8212
SWIDTH 993 0
DWIDTH 40 0
BBX 39 2 0 10
BITMAP
FFFFFFFFFE
FFFFFFFFFE
ENDCHAR
STARTCHAR 2018
ENCODING 8216
SWIDTH 223 0
DWIDTH 9 0
BBX 7 9 1 20
BITMAP
E0
60
70
30
38
18
1C
0C
0E
ENDCHAR
STARTCHAR 2019
ENCODING 8217
SWIDTH 223 0
DWIDTH 9 0
BBX 7 9 1 20
BITMAP
0E
0C
1C
18
38
30
70
60
E0
ENDCHAR
STARTCHAR 201A
ENCODING 8218
SWIDTH 223 0
DWIDTH 9 0
BBX 7 9 1 -5
BITMAP
0E
0C
1C
18
38
30
70
60
E0
ENDCHAR
STARTCHAR 201C
ENCODING 8220
SWIDTH 322 0
DWIDTH 13 0
BBX 11 9 1 20
BITMAP
EE00
6700
7700
3380
3B80
19C0
1DC0
0CE0
0EE0
ENDCHAR
STARTCHAR 201D
ENCODING 8221
SWIDTH 322 0
DWIDTH 13 0
BBX 11 9 1 20
BITMAP
0EE0
0CE0
1DC0
19C0
3B80
3380
7700
6700
EE00
ENDCHAR
STARTCHAR 201E
ENCODING 8222
SWIDTH 322 0
DWIDTH 13 0
BBX 11 9 1 -5
BITMAP
0EE0
0CE0
1DC0
19C0
3B80
3380
7700
6700
EE00
ENDCHAR
STARTCHAR 2020
ENCODING 8224
SWIDTH 446 0
DWIDTH 18 0
BBX 13 33 2 -4
BITMAP
0300
0300
0300
0300
0300
0300
0300
C308
FFF8
FBF8
0300
0300
0300
0300
0300
0300
0300
0300
0300
0300
0300
0300
0300
0300
0300
0300
0300
0300
0300
0300
0300
0300
0300
ENDCHAR
STARTCHAR 2021
ENCODING 8225
SWIDTH 446 0
DWIDTH 18 0
BBX 14 33 2 -4
BITMAP
0300
0300
0300
0300
0300
0300
0300
830C
FFFC
FB7C
0300
0300
0300
0300
0300
0300
0780
0300
0300
0300
0300
0300
830C
FFFC
FB7C
0300
0300
0300
0300
0300
0300
0300
0780
ENDCHAR
STARTCHAR 2022
ENCODING 8226
SWIDTH 496 0
DWIDTH 20 0
BBX 14 14 3 7
BITMAP
0FC0
1FE0
3FF0
7FF8
FFFC
FFFC
FFFC
FFFC
FFFC
FFFC
7FF8
3FF0
1FE0
0FC0
ENDCHAR
STARTCHAR 2026
ENCODING 8230
SWIDTH 993 0
DWIDTH 40 0
BBX 30 4 5 0
BITMAP
E007001C
E007001C
E007001C
E007001C
ENDCHAR
STARTCHAR 2030
ENCODING 8240
SWIDTH 993 0
DWIDTH 40 0
BBX 38 29 1 0
BITMAP
0F80600000
3FC0C00000
70E0C00000
6061C00000
C031800000
C031800000
C033800000
C033000000
C037000000
E036000000
6066000000
70EE000000
3FCC000000
0F1C000000
0018000000
0018F803C0
0039FC0FF0
00338E1C38
0073061818
006603301C
006603300C
00E603300C
00C603300C
01C603300C
018603300C
0183061818
03838E1C38
0301FC0FF0
0700F807C0
ENDCHAR
STARTCHAR 2039
ENCODING 8249
SWIDTH 273 0
DWIDTH 11 0
BBX 8 14 2 4
BITMAP
07
0E
1C
18
38
70
E0
E0
70
38
18
1C
0E
07
ENDCHAR
STARTCHAR 203A
ENCODING 8250
SWIDTH 273 0
DWIDTH 11 0
BBX 8 14 2 4
BITMAP
E0
70
38
18
1C
0E
07
07
0E
1C
18
38
70
E0
ENDCHAR
STARTCHAR 2044
ENCODING 8260
SWIDTH 173 0
DWIDTH 7 0
BBX 20 29 -7 0
BITMAP
0000F0
0000E0
0001E0
0001C0
000380
000380
000700
000F00
000E00
001E00
001C00
003800
003800
007000
00F000
00E000
01E000
01C000
038000
038000
070000
070000
0E0000
1E0000
1C0000
380000
380000
700000
F00000
ENDCHAR
STARTCHAR 20AC
ENCODING 8364
SWIDTH 546 0
DWIDTH 22 0
BBX 19 29 1 0
BITMAP
003F00
00FFE0
01FFE0
03E0E0
078020
070000
0E0000
0E0000
0C0000
1C0000
7FFF80
7FFF80
7FFF80
1C0000
1C0000
1C0000
7FFE00
7FFE00
FFFE00
1C0000
0C0000
0E0000
0E0000
0F0000
078020
03E0E0
03FFE0
00FFE0
003F00
ENDCHAR
STARTCHAR 2122
ENCODING 8482
SWIDTH 993 0
DWIDTH 40 0
BBX 33 16 2 13
BITMAP
FFF3E00F80
FFF3E00F80
0703F01F80
0703F01F80
0703B81B80
0703B83B80
0703B83380
07039C7380
07039C7380
07038EE380
07038EE380
070386C380
070387C380
070387C380
0703838380
0703838380
ENDCHAR
STARTCHAR 2212
ENCODING 8722
SWIDTH 595 0
DWIDTH 24 0
BBX 20 3 2 9
BITMAP
FFFFF0
FFFFF0
FFFFF0
ENDCHAR
STARTCHAR 2215
ENCODING 8725
SWIDTH 173 0
DWIDTH 7 0
BBX 20 29 -7 0
BITMAP
0000F0
0000E0
0001E0
0001C0
000380
000380
000700
000F00
000E00
001E00
001C00
003800
003800
007000
00F000
00E000
01E000
01C000
038000
038000
070000
070000
0E0000
1E0000
1C0000
380000
380000
700000
F00000
ENDCHAR
STARTCHAR 2219
ENCODING 8729
SWIDTH 273 0
DWIDTH 11 0
BBX 4 4 4 8
BITMAP
60
F0
F0
60
ENDCHAR
STARTCHAR FB01
ENCODING 64257
SWIDTH 446 0
DWIDTH 18 0
BBX 15 29 0 0
BITMAP
07CE
0FCE
1E0E
1C0E
1C00
1C00
1C00
FF8E
FF8E
1C0E
1C0E
1C0E
1C0E
1C0E
1C0E
1C0E
1C0E
1C0E
1C0E
1C0E
1C0E
1C0E
1C0E
1C0E
1C0E
1C0E
1C0E
1C0E
1C0E
ENDCHAR
STARTCHAR FB02
ENCODING 64258
SWIDTH 446 0
DWIDTH 18 0
BBX 15 29 0 0
BITMAP
07CE
0FCE
1E0E
1C0E
1C0E
1C0E
1C0E
FF8E
FF8E
1C0E
1C0E
1C0E
1C0E
1C0E
1C0E
1C0E
1C0E
1C0E
1C0E
1C0E
1C0E
1C0E
1C0E
1C0E
1C0E
1C0E
1C0E
1C0E
1C0E
ENDCHAR
ENDFONT
